# AST/ASF file generated using VICON BodyLanguage
# -----------------------------------------------
:version 1.10
:name VICON
:units
  mass 1.0
  length 0.45
  angle deg
:documentation
   .ast/.asf automatically generated from VICON data using
   VICON BodyBuilder and BodyLanguage model FoxedUp or BRILLIANT.MOD
:root
   order TX TY TZ RX RY RZ
   axis XYZ
   position 0 0 0  
   orientation 0 0 0 
:bonedata
  begin
     id 1 
     name lhipjoint
     direction 0.630305 -0.712092 0.309259 
     length 2.29033 
     axis 0 0 0  XYZ
  end
  begin
     id 2 
     name lfemur
     direction 0.34202 -0.939693 0  
     length 6.43538  
     axis 0 0 20  XYZ
    dof rx ry rz
    limits (-160.0 20.0)
           (-70.0 70.0)
           (-60.0 70.0)
  end
  begin
     id 3 
     name ltibia
     direction 0.34202 -0.939693 0   
     length 7.43097   
     axis 0 0 20   XYZ
    dof rx
    limits (-10.0 170.0)
  end
  begin
     id 4 
     name lfoot
     direction 0.0334653 -0.0919451 0.995202   
     length 1.78438   
     axis -90 7.62852e-016 20   XYZ
    dof rx rz
    limits (-45.0 90.0)
           (-70.0 20.0)
  end
  begin
     id 5 
     name ltoes
     direction 1.53535e-011 -4.21933e-011 1   
     length 0.90832   
     axis -90 7.62852e-016 20   XYZ
    dof rx
    limits (-90.0 20.0)
  end
  begin
     id 6 
     name rhipjoint
     direction -0.682059 -0.67077 0.291312   
     length 2.43143  
     axis 0 0 0  XYZ 
  end
  begin
     id 7 
     name rfemur
     direction -0.34202 -0.939693 0   
     length 6.63488   
     axis 0 0 -20   XYZ
    dof rx ry rz
    limits (-160.0 20.0)
           (-70.0 70.0)
           (-70.0 60.0)
  end
  begin
     id 8 
     name rtibia
     direction -0.34202 -0.939693 0   
     length 6.86532   
     axis 0 0 -20   XYZ
    dof rx
    limits (-10.0 170.0)
 end
 begin
     id 9 
     name rfoot
     direction -0.105199 -0.289033 0.951521   
     length 1.77126  
     axis -90 -7.62852e-016 -20   XYZ
    dof rx rz
    limits (-45.0 90.0)
           (-20.0 70.0)
  end
  begin
     id 10 
     name rtoes
     direction -1.53551e-011 -4.21978e-011 1   
     length 0.889273   
     axis -90 -7.62852e-016 -20   XYZ
    dof rx
    limits (-90.0 20.0)
  end
  begin
     id 11 
     name lowerback
     direction -0.0514305 0.998089 0.034245   
     length 2.02077   
     axis 0 0 0   XYZ
    dof rx ry rz
    limits (-20.0 45.0)
           (-30.0 30.0)
           (-30.0 30.0)
  end
  begin
     id 12 
     name upperback
     direction 0.0203189 0.999449 -0.0262315   
     length 2.01413   
     axis 0 0 0   XYZ
    dof rx ry rz
    limits (-20.0 45.0)
           (-30.0 30.0)
           (-30.0 30.0)
  end
  begin
     id 13 
     name thorax
     direction 0.0452736 0.998142 -0.0407729   
     length 2.02986   
     axis 0 0 0   XYZ
    dof rx ry rz
    limits (-20.0 45.0)
           (-30.0 30.0)
           (-30.0 30.0)
  end
  begin
     id 14 
     name lowerneck
     direction -0.0180464 0.999645 -0.0195774   
     length 1.59034   
     axis 0 0 0   XYZ
    dof rx ry rz
    limits (-20.0 45.0)
           (-30.0 30.0)
           (-30.0 30.0)
  end
  begin
     id 15 
     name upperneck
     direction 0.0732272 0.979935 -0.18538   
     length 1.57486   
     axis 0 0 0   XYZ
    dof rx ry rz
    limits (-20.0 45.0)
           (-30.0 30.0)
           (-30.0 30.0)
  end
  begin
     id 16
     name head
     direction 0.0252963 0.997909 -0.059472  
     length 1.60334  
     axis 0 0 0   XYZ
    dof rx ry rz
    limits (-20.0 45.0)
           (-30.0 30.0)
           (-30.0 30.0)
  end
  begin
     id 17 
     name lclavicle
     direction 0.943819 0.330449 0.00315172  
     length 3.50322  
     axis 0 0 0   XYZ
    dof ry rz
    limits (-20.0 10.0)
           (0.0 20.0)
  end
  begin
     id 18 
     name lhumerus
     direction 1 -4.48949e-011 2.22502e-028   
     length 4.63208   
     axis 180 -30 -90   XYZ
    dof rx ry rz
    limits (-60.0 90.0)
           (-90.0 90.0)
           (-90.0 90.0)
  end
  begin
     id 19
     name lradius
     direction 1 -4.48967e-011 -4.10197e-027   
     length 3.41924   
     axis 180 -30 -90   XYZ
    dof rx
    limits (-10.0 170.0)
  end
  begin
     id 20
     name lwrist
     direction 1 -4.48987e-011 -1.24264e-027   
     length 1.70962   
     axis 2.50585e-015 90 90   XYZ
    dof ry
    limits (-180.0 0.0)
 end
  begin
     id 21 
     name lhand
     direction 1 -4.48983e-011 -2.48528e-027   
     length 0.62537   
     axis 1.58582e-015 90 90   XYZ
    dof rx rz
    limits (-90.0 90.0)
           (-45.0 45.0)
  end
  begin
     id 22 
     name lfingers
     direction 1 -4.48896e-011 -4.97056e-027   
     length 0.50419   
     axis 3.17164e-015 90 90   XYZ
    dof rx
    limits (0.0 90.0)
  end
  begin
     id 23
     name lthumb
     direction 0.707107 -6.34803e-011 0.707107   
     length 0.723919   
     axis -90 45 2.85299e-015   XYZ
    dof rx rz
    limits (-45.0 45.0)
           (-45.0 45.0)
  end
  begin
     id 24 
     name rclavicle
     direction -0.964499 0.260664 -0.0423695   
     length 3.91997  
     axis 0 0 0   XYZ 
    dof ry rz
    limits (-10.0 20.0)
           (-20.0 0.0)
  end
  begin
     id 25 
     name rhumerus
     direction -1 -4.48957e-011 -1.98656e-027  
     length 4.4064   
     axis 180 30 90   XYZ
    dof rx ry rz
    limits (-90.0 60.0)
           (-90.0 90.0)
           (-90.0 90.0)
  end
  begin
     id 26 
     name rradius
     direction -1 -4.48968e-011 1.96972e-027   
     length 3.44675   
     axis 180 30 90   XYZ
    dof rx
    limits (-10.0 170.0)
  end
  begin
     id 27 
     name rwrist
     direction -1 -4.48974e-011 -1.24264e-027   
     length 1.72338   
     axis 2.50585e-015 -90 -90   XYZ
    dof ry
    limits (-180.0 0.0)
  end
  begin
     id 28
     name rhand
     direction -1 -4.48901e-011 -2.48528e-027   
     length 0.513674   
     axis 1.58582e-015 -90 -90   XYZ
    dof rx rz
    limits (-90.0 90.0)
           (-45.0 45.0)
  end
  begin
     id 29
     name rfingers
     direction -1 -4.48946e-011 -4.97056e-027   
     length 0.414137   
     axis 3.17164e-015 -90 -90   XYZ
    dof rx
    limits (0.0 90.0)
  end
  begin
     id 30
     name rthumb
     direction -0.707107 -6.34859e-011 0.707107   
     length 0.59462   
     axis -90 -45 -2.85299e-015   XYZ
    dof rx rz
    limits (-45.0 45.0)
           (-45.0 45.0)
  end
:hierarchy
  begin
    root lhipjoint rhipjoint lowerback
    lhipjoint lfemur
    lfemur ltibia
    ltibia lfoot
    lfoot ltoes
    rhipjoint rfemur
    rfemur rtibia
    rtibia rfoot
    rfoot rtoes
    lowerback upperback
    upperback thorax
    thorax lowerneck lclavicle rclavicle
    lowerneck upperneck
    upperneck head
    lclavicle lhumerus
    lhumerus lradius
    lradius lwrist
    lwrist lhand lthumb
    lhand lfingers
    rclavicle rhumerus
    rhumerus rradius
    rradius rwrist
    rwrist rhand rthumb
    rhand rfingers
  end

#!OML:ASF E:\inclinewalkrobotboard\Project 1\Capture day 1\Session 1\subject1.ASF
:FULLY-SPECIFIED
:DEGREES
244
root 9.29718 16.5766 7.56594 -168.632 -0.964031 178.606
lowerback -11.2034 0.719351 -6.34516
upperback -0.456458 1.62574 1.01692
thorax 5.60458 0.587621 4.9104
lowerneck -4.36954 -0.650103 -4.38489
upperneck 10.7762 -1.03033 2.41181
head 4.38884 -0.682717 1.53829
rclavicle -1.37161e-014 -1.98785e-015
rhumerus -57.4855 -47.6584 -46.1493
rradius 14.8488
rwrist 33.709
rhand -13.3469 -39.2175
rfingers 7.12502
rthumb 12.7588 -68.8077
lclavicle -1.37161e-014 -1.98785e-015
lhumerus -33.14 17.0954 82.5187
lradius 16.356
lwrist -28.3005
lhand -28.8793 -16.2215
lfingers 7.12502
lthumb -2.23512 13.7465
rfemur -7.33143 0.769181 19.6318
rtibia 6.40976
rfoot 347.821 3.56781
rtoes -22.4287
lfemur -8.45224 -7.04476 -22.8887
ltibia 9.86681
lfoot -14.3633 4.39119
ltoes -59.6377
245
root 9.30178 16.5764 7.55614 -168.565 -1.01131 178.473
lowerback -11.2949 0.676025 -6.46631
upperback -0.493905 1.58734 0.982822
thorax 5.61888 0.564852 4.93911
lowerneck -4.3047 -0.547287 -4.42746
upperneck 10.4839 -0.892017 2.61245
head 4.26763 -0.597929 1.61943
rclavicle 7.67806e-015 2.38542e-015
rhumerus -57.5549 -47.9154 -45.8948
rradius 14.735
rwrist 34.1712
rhand -13.7671 -38.6715
rfingers 7.12502
rthumb 12.3537 -68.2865
lclavicle 7.67806e-015 2.38542e-015
lhumerus -32.782 16.2495 82.9228
lradius 16.4165
lwrist -27.8093
lhand -28.7319 -16.1887
lfingers 7.12502
lthumb -2.09279 13.7808
rfemur -7.35027 0.670208 19.5092
rtibia 6.3907
rfoot 347.823 3.52236
rtoes -23.0095
lfemur -8.50756 -7.10029 -23.0271
ltibia 9.88485
lfoot -14.3697 4.17882
ltoes -59.3764
246
root 9.3061 16.5756 7.54599 -168.499 -0.971277 178.418
lowerback -11.3899 0.677323 -6.54306
upperback -0.529473 1.6013 0.979859
thorax 5.63045 0.568755 4.98381
lowerneck -4.57235 -0.525194 -4.32319
upperneck 10.6575 -0.848177 2.48268
head 4.37932 -0.578499 1.56107
rclavicle 2.73329e-016 -7.55382e-015
rhumerus -57.8861 -48.3324 -45.2706
rradius 14.6104
rwrist 34.9836
rhand -13.9591 -38.225
rfingers 7.12502
rthumb 12.1685 -67.851
lclavicle 2.73329e-016 -7.55382e-015
lhumerus -32.4683 15.4628 83.2991
lradius 16.5911
lwrist -27.405
lhand -28.6017 -17.0441
lfingers 7.12502
lthumb -1.96701 12.9266
rfemur -7.38119 0.748249 19.4749
rtibia 6.37656
rfoot 347.778 3.42693
rtoes -23.2075
lfemur -8.47879 -7.08935 -23.0691
ltibia 9.7615
lfoot -14.3566 3.91719
ltoes -58.7864
247
root 9.31049 16.5749 7.53577 -168.428 -0.901344 178.527
lowerback -11.5198 0.695876 -6.49075
upperback -0.571443 1.62034 1.02509
thorax 5.65601 0.577325 5.00831
lowerneck -4.68943 -0.516795 -4.18892
upperneck 10.7357 -0.825062 2.29885
head 4.42643 -0.570695 1.47606
rclavicle 1.63003e-014 -6.55989e-015
rhumerus -57.9363 -48.4203 -45.1473
rradius 14.5985
rwrist 35.4812
rhand -13.9617 -38.0752
rfingers 7.12502
rthumb 12.1661 -67.7015
lclavicle 1.63003e-014 -6.55989e-015
lhumerus -32.1838 15.2691 83.403
lradius 16.6241
lwrist -27.5474
lhand -28.4379 -17.4264
lfingers 7.12502
lthumb -1.80885 12.5456
rfemur -7.41364 0.995201 19.6235
rtibia 6.35409
rfoot 347.728 3.34462
rtoes -22.5112
lfemur -8.37993 -7.05367 -22.9062
ltibia 9.49464
lfoot -14.2777 3.82639
ltoes -58.3957
248
root 9.31305 16.5747 7.52425 -168.393 -0.878486 178.65
lowerback -11.6217 0.707723 -6.39034
upperback -0.59802 1.62485 1.05056
thorax 5.68603 0.580159 4.98168
lowerneck -4.75618 -0.49784 -4.06444
upperneck 10.7274 -0.790729 2.17177
head 4.43254 -0.553139 1.41207
rclavicle -2.30839e-014 -5.36719e-015
rhumerus -58.0873 -48.583 -44.937
rradius 14.5274
rwrist 35.9729
rhand -14.0429 -37.9005
rfingers 7.12502
rthumb 12.0877 -67.5314
lclavicle -2.30839e-014 -5.36719e-015
lhumerus -32.0027 15.3803 83.3284
lradius 16.6447
lwrist -27.8716
lhand -28.1867 -16.5548
lfingers 7.12502
lthumb -1.56622 13.4192
rfemur -7.3778 1.11358 19.7871
rtibia 6.29926
rfoot 347.718 3.31616
rtoes -22.4015
lfemur -8.19686 -7.04191 -22.742
ltibia 9.1668
lfoot -14.2127 3.79519
ltoes -58.255
249
root 9.31478 16.5734 7.51374 -168.39 -0.873494 178.662
lowerback -11.6595 0.678399 -6.40949
upperback -0.588698 1.59025 1.06894
thorax 5.72068 0.560853 5.00819
lowerneck -4.88319 -0.434169 -4.21404
upperneck 10.6037 -0.689718 2.33419
head 4.41312 -0.494897 1.50013
rclavicle -3.2874e-014 3.18055e-015
rhumerus -57.9765 -48.6979 -44.9565
rradius 14.3862
rwrist 36.1882
rhand -14.2846 -37.8033
rfingers 7.12502
rthumb 11.8546 -67.4478
lclavicle -3.2874e-014 3.18055e-015
lhumerus -31.8862 15.4892 83.2957
lradius 16.8812
lwrist -28.0514
lhand -28.0069 -16.422
lfingers 7.12502
lthumb -1.39257 13.5532
rfemur -7.32945 1.22256 19.8357
rtibia 6.28205
rfoot 347.694 3.16982
rtoes -23.0679
lfemur -7.99901 -6.98559 -22.7132
ltibia 8.88007
lfoot -14.2016 3.70674
ltoes -58.3502
250
root 9.3157 16.5714 7.50503 -168.37 -0.830617 178.671
lowerback -11.7107 0.640084 -6.46188
upperback -0.583263 1.54767 1.10088
thorax 5.75865 0.536345 5.0671
lowerneck -4.88614 -0.32102 -4.53095
upperneck 10.3405 -0.532346 2.73748
head 4.32013 -0.402035 1.70232
rclavicle -8.94531e-016 5.96354e-016
rhumerus -57.3051 -48.3598 -45.8148
rradius 14.4294
rwrist 35.7
rhand -14.3043 -38.0197
rfingers 7.12502
rthumb 11.8356 -67.6652
lclavicle -8.94531e-016 5.96354e-016
lhumerus -31.7057 15.2957 83.4603
lradius 17.0818
lwrist -27.7058
lhand -28.0569 -16.9399
lfingers 7.12502
lthumb -1.44082 13.0349
rfemur -7.35138 1.46161 19.8788
rtibia 6.33084
rfoot 347.649 2.96718
rtoes -23.353
lfemur -7.86532 -6.91663 -22.69
ltibia 8.66578
lfoot -14.241 3.63355
ltoes -58.4394
251
root 9.31478 16.5696 7.49769 -168.325 -0.817154 178.721
lowerback -11.7898 0.645076 -6.46632
upperback -0.604616 1.55768 1.0955
thorax 5.77881 0.539948 5.06741
lowerneck -4.71659 -0.230212 -4.65804
upperneck 10.0857 -0.429512 3.07692
head 4.19481 -0.335772 1.84332
rclavicle 6.80837e-015 -1.0138e-014
rhumerus -56.7069 -47.8931 -46.8541
rradius 14.6528
rwrist 34.8837
rhand -13.8404 -38.5322
rfingers 7.12502
rthumb 12.283 -68.1514
lclavicle 6.80837e-015 -1.0138e-014
lhumerus -31.5852 14.5879 83.7705
lradius 17.2745
lwrist -26.7765
lhand -27.9976 -17.3106
lfingers 7.12502
lthumb -1.3836 12.6647
rfemur -7.38844 1.70885 19.9499
rtibia 6.35161
rfoot 347.614 2.79307
rtoes -23.1788
lfemur -7.79985 -6.9271 -22.6193
ltibia 8.49304
lfoot -14.2805 3.55495
ltoes -58.1722
252
root 9.31275 16.5681 7.4906 -168.247 -0.847227 178.789
lowerback -11.9001 0.653876 -6.45126
upperback -0.606303 1.57445 1.07735
thorax 5.8374 0.545857 5.04552
lowerneck -4.78516 -0.158486 -4.62548
upperneck 10.0154 -0.33894 3.21128
head 4.18012 -0.280062 1.88788
rclavicle 2.14439e-014 6.55989e-015
rhumerus -56.3633 -47.7274 -47.5295
rradius 14.8239
rwrist 34.3266
rhand -13.4687 -39.0743
rfingers 7.12502
rthumb 12.6413 -68.6718
lclavicle 2.14439e-014 6.55989e-015
lhumerus -31.5239 13.8766 84.027
lradius 17.6021
lwrist -26.0607
lhand -27.7439 -17.2329
lfingers 7.12502
lthumb -1.1386 12.7438
rfemur -7.45227 1.90153 20.0356
rtibia 6.37517
rfoot 347.592 2.62003
rtoes -23.1026
lfemur -7.79365 -6.94433 -22.5229
ltibia 8.35242
lfoot -14.3211 3.49037
ltoes -57.9507
253
root 9.30902 16.5663 7.48298 -168.161 -0.899372 178.825
lowerback -12.0222 0.64882 -6.46156
upperback -0.573749 1.57934 1.07114
thorax 5.93987 0.543298 5.05011
lowerneck -5.18023 -0.0820879 -4.68313
upperneck 10.1355 -0.209314 3.22903
head 4.2973 -0.212977 1.91666
rclavicle -3.09359e-015 6.75868e-015
rhumerus -56.0893 -47.7466 -47.9867
rradius 14.9673
rwrist 34.0456
rhand -13.4479 -39.3019
rfingers 7.12502
rthumb 12.6614 -68.8981
lclavicle -3.09359e-015 6.75868e-015
lhumerus -31.3813 13.3666 84.2707
lradius 17.8955
lwrist -25.7444
lhand -27.5582 -16.6358
lfingers 7.12502
lthumb -0.959202 13.3418
rfemur -7.52592 1.97701 20.084
rtibia 6.40535
rfoot 347.6 2.50104
rtoes -23.1754
lfemur -7.7915 -6.95231 -22.4843
ltibia 8.21017
lfoot -14.3388 3.38823
ltoes -57.6963
254
root 9.30267 16.565 7.47378 -168.164 -0.945231 178.79
lowerback -12.0838 0.650308 -6.52683
upperback -0.525456 1.5991 1.05554
thorax 6.02221 0.547725 5.07685
lowerneck -5.04428 -0.160075 -4.65843
upperneck 9.72244 -0.307567 3.31282
head 4.12708 -0.246962 1.92951
rclavicle 5.67779e-015 -1.07344e-014
rhumerus -55.857 -47.6842 -48.4024
rradius 15.1342
rwrist 33.7752
rhand -13.3354 -39.2803
rfingers 7.12502
rthumb 12.7699 -68.8698
lclavicle 5.67779e-015 -1.07344e-014
lhumerus -31.259 12.9362 84.5235
lradius 18.1212
lwrist -25.4745
lhand -27.2449 -16.5741
lfingers 7.12502
lthumb -0.656618 13.4046
rfemur -7.47077 1.9504 20.0302
rtibia 6.38481
rfoot 347.615 2.47472
rtoes -23.212
lfemur -7.63527 -7.08128 -22.573
ltibia 7.99364
lfoot -14.3334 3.29972
ltoes -57.0852
